<svg width="44" height="31" viewBox="0 0 44 31" fill="none" xmlns="http://www.w3.org/2000/svg">
<path fill-rule="evenodd" clip-rule="evenodd" d="M9.85649 3.181L18.448 23.2431L19 23.0067V23.181H37V23.0408L37.8476 23.3458L43.2644 8.29062L40.4416 7.27496L35.798 20.181H20.4002L12 0.565656V0.181H11.8353L11.7578 0L11.3351 0.181H0V3.181H9.85649ZM21 27.681C21 29.0617 19.8807 30.181 18.5 30.181C17.1193 30.181 16 29.0617 16 27.681C16 26.3003 17.1193 25.181 18.5 25.181C19.8807 25.181 21 26.3003 21 27.681ZM40 27.681C40 29.0617 38.8807 30.181 37.5 30.181C36.1193 30.181 35 29.0617 35 27.681C35 26.3003 36.1193 25.181 37.5 25.181C38.8807 25.181 40 26.3003 40 27.681Z" fill="white"/>
<path d="M32.3154 7.88998C32.3154 9.65952 31.9492 11.013 31.2168 11.9505C30.4844 12.888 29.4121 13.3568 28 13.3568C26.6055 13.3568 25.5391 12.8968 24.8008 11.9769C24.0625 11.057 23.6846 9.73862 23.667 8.02182V5.66635C23.667 3.87924 24.0361 2.5228 24.7744 1.59702C25.5186 0.671234 26.5879 0.208344 27.9824 0.208344C29.377 0.208344 30.4434 0.668304 31.1816 1.58823C31.9199 2.50229 32.2979 3.81772 32.3154 5.53452V7.88998ZM29.7754 5.306C29.7754 4.24545 29.6289 3.47495 29.3359 2.99448C29.0488 2.50815 28.5977 2.26498 27.9824 2.26498C27.3848 2.26498 26.9424 2.49643 26.6553 2.95932C26.374 3.41635 26.2246 4.13412 26.207 5.11264V8.22397C26.207 9.26694 26.3477 10.0433 26.6289 10.5531C26.916 11.057 27.373 11.3089 28 11.3089C28.6211 11.3089 29.0693 11.0658 29.3447 10.5794C29.6201 10.0931 29.7637 9.34897 29.7754 8.34702V5.306Z" fill="#FF7A00"/>
</svg>
