<svg width="59" height="44" viewBox="0 0 59 44" fill="none" xmlns="http://www.w3.org/2000/svg">
<path fill-rule="evenodd" clip-rule="evenodd" d="M15.8565 9.181L24.448 29.2431L25 29.0067V29.181H43V29.0408L43.8476 29.3458L49.2644 14.2906L46.4416 13.275L41.798 26.181H26.4002L18 6.56566V6.181H17.8353L17.7578 6L17.3351 6.181H6V9.181H15.8565ZM27 33.681C27 35.0617 25.8807 36.181 24.5 36.181C23.1193 36.181 22 35.0617 22 33.681C22 32.3003 23.1193 31.181 24.5 31.181C25.8807 31.181 27 32.3003 27 33.681ZM46 33.681C46 35.0617 44.8807 36.181 43.5 36.181C42.1193 36.181 41 35.0617 41 33.681C41 32.3003 42.1193 31.181 43.5 31.181C44.8807 31.181 46 32.3003 46 33.681Z" fill="white"/>
<path d="M38.3154 13.89C38.3154 15.6595 37.9492 17.013 37.2168 17.9505C36.4844 18.888 35.4121 19.3568 34 19.3568C32.6055 19.3568 31.5391 18.8968 30.8008 17.9769C30.0625 17.057 29.6846 15.7386 29.667 14.0218V11.6664C29.667 9.87924 30.0361 8.5228 30.7744 7.59702C31.5186 6.67123 32.5879 6.20834 33.9824 6.20834C35.377 6.20834 36.4434 6.6683 37.1816 7.58823C37.9199 8.50229 38.2979 9.81772 38.3154 11.5345V13.89ZM35.7754 11.306C35.7754 10.2455 35.6289 9.47495 35.3359 8.99448C35.0488 8.50815 34.5977 8.26498 33.9824 8.26498C33.3848 8.26498 32.9424 8.49643 32.6553 8.95932C32.374 9.41635 32.2246 10.1341 32.207 11.1126V14.224C32.207 15.2669 32.3477 16.0433 32.6289 16.5531C32.916 17.057 33.373 17.3089 34 17.3089C34.6211 17.3089 35.0693 17.0658 35.3447 16.5794C35.6201 16.0931 35.7637 15.349 35.7754 14.347V11.306Z" fill="#FF7A00"/>
</svg>
