<svg width="52" height="49" viewBox="0 0 52 49" fill="none" xmlns="http://www.w3.org/2000/svg">
<path d="M37.1743 30.6515C37.1154 30.7004 37.0896 30.7786 37.1079 30.853L41.3364 48.0791C41.3793 48.254 41.1873 48.3921 41.0351 48.2957L26.107 38.8433C26.0417 38.8019 25.9583 38.8019 25.893 38.8433L10.9715 48.2954C10.8193 48.3918 10.6272 48.2537 10.6702 48.0788L14.9047 30.8531C14.923 30.7787 14.8972 30.7004 14.8382 30.6514L1.37825 19.4796C1.24021 19.3651 1.31117 19.1407 1.48999 19.1264L19.0368 17.7187C19.112 17.7127 19.1774 17.6649 19.2059 17.5951L25.815 1.45189C25.8828 1.28629 26.1173 1.28625 26.1852 1.45183L32.8004 17.5952C32.829 17.6649 32.8943 17.7127 32.9694 17.7187L50.5103 19.1264C50.6891 19.1407 50.7601 19.365 50.6221 19.4796L37.1743 30.6515Z" fill="#F3A847" stroke="#A35C00"/>
</svg>

